<svg width="34" height="34" viewBox="0 0 34 34" fill="none" xmlns="http://www.w3.org/2000/svg">
<path d="M17 0C9.80001 0 3.70001 4.4 1.20001 10.7H32.8C30.3 4.4 24.2 0 17 0Z" fill="#82AFFF"/>
<path d="M17 33.9999C24.5 33.9999 30.8 29.0999 33.1 22.3999H0.900024C3.20002 29.0999 9.50002 33.9999 17 33.9999Z" fill="#82AFFF"/>
<path d="M0 17C0 18.9 0.3 20.7 0.9 22.4H33.1C33.7 20.7 34 18.9 34 17C34 14.8 33.6 12.7 32.8 10.7H1.2C0.4 12.7 0 14.8 0 17Z" fill="#F5F5F5"/>
<circle cx="17.5" cy="16.5" r="3.5" fill="#FFE15A"/>
<circle cx="17" cy="17" r="16.5" stroke="#2D2D2D"/>
</svg>
