<svg width="58" height="45" viewBox="0 0 58 45" fill="none" xmlns="http://www.w3.org/2000/svg">
<path d="M54.8143 5.16389C53.779 4.33361 51.5491 4.25057 51.5491 4.25057C51.5491 4.25057 50.7527 1.42759 47.8856 0.51427C46.7706 0.182155 45.8945 -0.0669369 45.1778 0.016092C44.6203 0.0991209 44.6203 0.514265 44.6203 0.846381C44.7 1.34455 44.7796 1.7597 45.0981 2.17485C45.3371 2.50696 45.576 2.83906 45.8946 3.17118C47.1688 4.33359 47.8856 3.91846 48.921 4.25057C49.8767 4.49966 50.1156 5.16389 50.1156 5.16389C50.1156 5.16389 49.797 4.74874 49.0802 4.58268C48.8413 4.49965 48.4431 4.49964 48.2042 4.41661C47.4078 4.33358 46.4521 4.49964 45.4167 3.58632C45.0185 3.25421 44.7796 3.00514 44.6203 2.58999C44.5407 2.50696 44.461 2.42393 44.3814 2.50696H44.3017C43.9832 2.58999 43.7442 2.75604 43.9035 3.25421C44.1425 3.83542 44.8592 4.41661 45.6556 4.83176C46.5317 5.2469 47.6466 5.24691 48.3634 5.41297C49.1598 5.57903 49.4784 6.07719 49.4784 6.07719C49.4784 6.07719 49.2395 6.40932 49.0006 7.07355C48.7617 7.82081 48.7616 8.48505 48.7616 8.48505C48.7616 8.48505 41.2753 5.99417 35.6208 4.16754C26.2231 1.09547 19.4536 8.31898 15.2327 13.6328C7.82602 22.9321 2.33073 20.8563 0.658261 20.2751C0.339696 20.1921 0.0211887 20.3582 0.0211887 20.6903C-0.0584526 20.9394 0.100772 21.1054 0.260054 21.2715C5.67566 24.8417 10.8524 23.1812 18.7369 17.1201C23.5154 13.3838 26.1435 13.4668 26.1435 13.4668C26.1435 19.5279 29.2496 18.4485 29.8071 24.3436C30.1256 27.5817 28.8514 30.0726 27.816 32.0653C27.4975 32.7295 27.6567 33.5598 28.2142 34.141C30.1256 36.1337 34.7448 40.6172 34.4262 43.9384C34.4262 44.1875 34.5855 44.4366 34.8244 44.5196L35.9394 44.9347C36.4969 45.1838 36.9748 44.6856 36.9748 44.0214C36.8951 42.5269 36.1783 39.7869 34.1076 36.964C31.2405 32.9786 31.3999 31.1519 33.7891 28.329C35.8598 25.9211 38.0101 24.0945 38.8065 20.0261C39.5232 16.2067 37.7711 13.6328 36.8154 12.6365C36.7358 12.5535 36.8154 12.4704 36.8951 12.5535C37.6118 13.0516 38.6472 14.048 39.2843 15.4595C40.0011 17.1201 39.8418 18.8637 39.8418 18.8637C41.355 18.7806 43.4257 18.2825 44.5407 17.8673C45.0185 17.7012 45.4964 18.1994 45.3371 18.6976C45.0185 19.6109 44.3018 20.7733 43.0275 21.7697C42.7089 22.0188 42.5496 22.1848 42.4699 22.6L42.2311 23.6793C42.1514 24.1775 42.6293 24.5926 43.0275 24.3436C43.9035 23.9284 45.2574 23.0151 46.452 21.1885C47.4077 19.6109 47.8856 18.1164 48.0448 17.1201C48.2041 16.3728 48.5227 15.7086 49.0006 15.1274C49.6377 14.3801 50.6731 13.3007 52.1066 11.8892C52.8234 11.142 56.248 12.2213 56.9647 11.5571C57.4426 11.0589 58 9.73048 58 9.73048C58 9.23231 56.2479 6.40933 54.8143 5.16389Z" fill="white"/>
</svg>
