<svg width="142" height="41" viewBox="0 0 142 41" fill="none" xmlns="http://www.w3.org/2000/svg">
<path d="M98.8885 9.55338C97.3909 8.64408 95.6151 8.18408 93.5611 8.18408C91.4216 8.18408 89.5602 8.66547 87.9556 9.63896C86.351 10.6017 85.0886 11.9603 84.1686 13.6933C83.2486 15.4264 82.778 17.4161 82.778 19.6733C82.778 22.0161 83.2593 24.0379 84.2114 25.7389C85.1635 27.4398 86.5328 28.7556 88.3086 29.6756C90.0844 30.5956 92.2025 31.0663 94.6523 31.0663C96.2141 31.0663 97.7546 30.8309 99.2844 30.3495C100.814 29.8681 102.109 29.2156 103.178 28.3812L101.445 23.963C100.493 24.6584 99.4555 25.1933 98.3323 25.5677C97.209 25.9421 96.0644 26.1347 94.909 26.1347C92.9193 26.1347 91.4323 25.5891 90.4695 24.4872C89.6565 23.5672 89.1858 22.1659 89.0574 20.2831H103.574V19.331C103.574 17.0524 103.168 15.084 102.365 13.4152C101.552 11.7464 100.397 10.4627 98.8885 9.55338ZM93.743 12.7841C95.1337 12.7841 96.1927 13.2547 96.9309 14.1961C97.4765 14.8915 97.8081 15.8329 97.9365 17.031H89.1965C89.3891 15.9612 89.7421 15.084 90.2556 14.4101C91.0793 13.3189 92.2346 12.7841 93.743 12.7841Z" fill="white"/>
<path d="M140.459 20.144C139.443 19.1063 137.817 18.3254 135.571 17.8012L131.891 16.9775C130.971 16.7422 130.329 16.4854 129.965 16.1966C129.601 15.9078 129.419 15.5226 129.419 15.0305C129.419 14.3673 129.719 13.8431 130.329 13.4687C130.939 13.0943 131.773 12.9017 132.843 12.9017C133.945 12.9017 135.068 13.105 136.245 13.5115C137.411 13.918 138.566 14.5064 139.689 15.2873L141.508 10.912C140.299 10.0455 138.951 9.37152 137.485 8.90082C136.009 8.41943 134.479 8.18408 132.896 8.18408C131.024 8.18408 129.377 8.48361 127.954 9.09338C126.542 9.70314 125.44 10.5269 124.638 11.5859C123.846 12.645 123.45 13.8431 123.45 15.2017C123.45 16.8812 123.953 18.2184 124.948 19.224C125.943 20.2403 127.505 20.957 129.644 21.3849L133.239 22.2514C134.34 22.5082 135.1 22.797 135.539 23.0965C135.966 23.3961 136.191 23.824 136.191 24.3696C136.191 25.0007 135.892 25.5035 135.282 25.8672C134.672 26.2309 133.806 26.4128 132.682 26.4128C131.238 26.4128 129.805 26.1882 128.371 25.7389C126.938 25.2896 125.654 24.6477 124.499 23.8133L122.723 28.3598C125.151 30.1463 128.457 31.0449 132.639 31.0449C135.56 31.0449 137.838 30.4351 139.507 29.2263C141.165 28.0174 142 26.37 142 24.284C141.968 22.5724 141.465 21.1817 140.459 20.144Z" fill="white"/>
<path d="M31.804 8.82617H25.9203V30.5102H31.804V8.82617Z" fill="white"/>
<path d="M12.5804 8.27002C9.76691 8.27002 7.74507 9.36117 6.32228 11.3402H5.90508V8.8156H0V40.1703H5.90508V27.9857H6.32228C7.74507 29.9648 9.85249 31.0559 12.6232 31.0559C18.2929 31.0559 22.2189 26.5629 22.2189 19.663C22.2189 12.6881 18.3464 8.27002 12.5804 8.27002ZM11.1469 25.7071C8.11948 25.7071 5.90508 23.1076 5.90508 19.663C5.90508 16.2183 8.11948 13.6188 11.1469 13.6188C14.2171 13.6188 16.3887 16.2183 16.3887 19.663C16.3887 23.1076 14.2171 25.7071 11.1469 25.7071Z" fill="white"/>
<path d="M28.8515 0C27.0115 0 25.6422 1.31581 25.6422 3.19858C25.6422 5.08136 27.0008 6.42926 28.8515 6.42926C30.7557 6.42926 32.0822 5.08136 32.0822 3.19858C32.0822 1.31581 30.7557 0 28.8515 0Z" fill="white"/>
<path d="M46.5775 8.27002C39.9557 8.27002 35.5269 12.6774 35.5269 19.663C35.5269 26.5522 40.0733 31.0559 46.5775 31.0559C52.2365 31.0559 56.3979 27.8145 57.0504 22.4016V22.3909H51.8835C51.1347 24.509 49.1984 25.7285 46.6952 25.7285C43.2826 25.7285 40.9077 23.3322 40.9077 19.663C40.9077 15.9509 43.2291 13.5974 46.6952 13.5974C49.2198 13.5974 51.1668 14.8383 51.9049 16.9672H57.0504V16.9351C56.4407 11.5114 52.2686 8.27002 46.5775 8.27002Z" fill="white"/>
<path d="M82.275 8.81452H74.4337L67.0524 16.7628H66.6351V2.85596H60.7515V30.4986H66.6351V21.8014H67.0524L74.423 30.4986H82.2857L72.583 19.2447L82.275 8.81452Z" fill="white"/>
<path d="M118.422 8.82599C116.818 8.82599 115.395 9.30739 114.133 10.2809C113.427 10.8264 112.87 11.5111 112.453 12.3455V8.7832H106.741V15.3301V20.3045V30.3282H112.453V20.3045V19.3524C112.453 18.3041 112.656 17.3948 113.052 16.6352C113.448 15.8757 114.015 15.2873 114.753 14.8701C115.481 14.4529 116.422 14.2497 117.545 14.2497C118.561 14.2497 119.588 14.485 120.615 14.9557L120.658 9.2432C120.38 9.13622 120.059 9.03995 119.685 8.95436C119.31 8.86878 118.893 8.82599 118.422 8.82599Z" fill="white"/>
</svg>
