<svg width="34" height="34" viewBox="0 0 34 34" fill="none" xmlns="http://www.w3.org/2000/svg">
<circle cx="17" cy="17" r="16.5" fill="white" stroke="#2D2D2D"/>
<path d="M17.5 17C18.7364 17 19.807 16.5565 20.6818 15.6816C21.5566 14.8068 22 13.7364 22 12.4999C22 11.2637 21.5566 10.1932 20.6816 9.31811C19.8067 8.44346 18.7363 8 17.5 8C16.2635 8 15.1931 8.44346 14.3184 9.31826C13.4436 10.1931 13 11.2636 13 12.4999C13 13.7364 13.4436 14.8069 14.3185 15.6817C15.1934 16.5564 16.2639 17 17.5 17Z" fill="#145A99"/>
<path d="M24.9636 21.9775C24.9394 21.6383 24.8903 21.2682 24.818 20.8775C24.745 20.4838 24.651 20.1116 24.5386 19.7715C24.4224 19.4199 24.2644 19.0727 24.069 18.74C23.8663 18.3946 23.6282 18.0939 23.361 17.8465C23.0816 17.5876 22.7395 17.3795 22.3439 17.2277C21.9496 17.0766 21.5127 17.0001 21.0454 17.0001C20.8619 17.0001 20.6844 17.0731 20.3416 17.2892C20.1306 17.4224 19.8839 17.5764 19.6084 17.7469C19.3729 17.8922 19.0539 18.0283 18.6598 18.1516C18.2753 18.272 17.8849 18.3331 17.4996 18.3331C17.1143 18.3331 16.724 18.272 16.3391 18.1516C15.9455 18.0284 15.6264 17.8923 15.3912 17.747C15.1183 17.5782 14.8714 17.4241 14.6573 17.289C14.3149 17.0729 14.1373 17 13.9538 17C13.4863 17 13.0495 17.0766 12.6555 17.2278C12.2601 17.3793 11.9179 17.5875 11.6382 17.8466C11.3711 18.0942 11.1329 18.3948 10.9304 18.74C10.7352 19.0727 10.5772 19.4197 10.4609 19.7716C10.3485 20.1117 10.2546 20.4838 10.1816 20.8775C10.1093 21.2677 10.0602 21.6379 10.0359 21.9779C10.0121 22.311 10 22.6567 10 23.0059C10 23.9147 10.2983 24.6504 10.8867 25.193C11.4677 25.7284 12.2365 26 13.1715 26H21.8285C22.7635 26 23.532 25.7285 24.1132 25.193C24.7017 24.6508 25 23.915 25 23.0058C24.9999 22.655 24.9877 22.309 24.9636 21.9775Z" fill="#145A99"/>
</svg>
