<svg width="48" height="44" viewBox="0 0 48 44" fill="none" xmlns="http://www.w3.org/2000/svg">
<path d="M10.0393 42.5287C14.9211 42.5287 18.8786 38.5712 18.8786 33.6894C18.8786 28.8076 14.9211 24.8501 10.0393 24.8501C5.15748 24.8501 1.2 28.8076 1.2 33.6894C1.2 38.5712 5.15748 42.5287 10.0393 42.5287Z" stroke="#4D4D4D" stroke-width="2" stroke-miterlimit="10"/>
<path d="M37.3607 42.5287C42.2425 42.5287 46.2 38.5712 46.2 33.6894C46.2 28.8076 42.2425 24.8501 37.3607 24.8501C32.4789 24.8501 28.5214 28.8076 28.5214 33.6894C28.5214 38.5712 32.4789 42.5287 37.3607 42.5287Z" stroke="#4D4D4D" stroke-width="2" stroke-miterlimit="10"/>
<path d="M31.3942 20.832H17.2714" stroke="#4D4D4D" stroke-width="2" stroke-miterlimit="10"/>
<path d="M18.8786 33.6893H23.7L31.8772 20.0254" stroke="#4D4D4D" stroke-width="2" stroke-miterlimit="10"/>
<path d="M17.482 21.2524L10.0393 33.6893H16.4679" stroke="#4D4D4D" stroke-width="2" stroke-miterlimit="10"/>
<path d="M37.5488 33.5262L30.9892 17.9128C30.7803 17.3857 30.9 16.6 31.8 16.3L36.6 14.8C37.5 14.5 38.5714 14.09 38.7 13.3C38.8631 12.2932 38.1 11.1999 36.686 11.5857L30.3 13.3" stroke="#4D4D4D" stroke-width="2" stroke-miterlimit="10"/>
<path d="M23.7 33.6891L15.6643 17.6177" stroke="#4D4D4D" stroke-width="2" stroke-miterlimit="10"/>
<path d="M10.8428 17.6178C9.95488 17.6178 9.23569 16.8987 9.23569 16.0107C9.23569 15.1228 9.95488 14.4036 10.8428 14.4036H17.2714C18.1593 14.4036 18.8785 15.1228 18.8785 16.0107C18.8785 16.8987 18.1593 17.6178 17.2714 17.6178H10.8428Z" stroke="#4D4D4D" stroke-width="2" stroke-miterlimit="10"/>
<path d="M10.0393 42.5286H22.0929" stroke="#4D4D4D" stroke-width="2" stroke-miterlimit="10"/>
<path d="M23.7 42.5286H25.3071" stroke="#4D4D4D" stroke-width="2" stroke-miterlimit="10"/>
<path d="M26.9143 42.5286H46.2" stroke="#4D4D4D" stroke-width="2" stroke-miterlimit="10"/>
<path d="M4.41431 33.6893C4.41431 33.183 4.481 32.6912 4.60716 32.2244" stroke="#4D4D4D" stroke-width="2" stroke-miterlimit="10"/>
<path d="M7.53708 38.7285C6.44905 38.1869 5.5611 37.3037 5.01387 36.2197" stroke="#4D4D4D" stroke-width="2" stroke-miterlimit="10"/>
<path d="M42.805 32.2676C42.9231 32.7216 42.9858 33.1981 42.9858 33.6891C42.9858 34.4903 42.8186 35.252 42.5165 35.9415" stroke="#4D4D4D" stroke-width="2" stroke-miterlimit="10"/>
<path d="M40.8403 29.2695C41.2196 29.5685 41.5587 29.9148 41.8504 30.2997" stroke="#4D4D4D" stroke-width="2" stroke-miterlimit="10"/>
<path d="M18.4105 14.4211H4.98947C4.55289 14.4211 4.2 13.9925 4.2 13.4624V1.95865C4.2 1.42852 4.55289 1 4.98947 1H17.6211C18.0576 1 18.4105 1.42852 18.4105 1.95865V14.4211Z" fill="#0098FF" stroke="#4D4D4D" stroke-width="2" stroke-miterlimit="10"/>
<path d="M13.2001 4.48122C12.8031 4.1564 11.9369 4.12031 11.9369 4.12031C11.9369 4.12031 11.6121 3.01954 10.5114 2.65864C10.0783 2.51428 9.73541 2.4421 9.44669 2.47819C9.23015 2.49624 9.23016 2.65862 9.2482 2.82103C9.26625 3.00148 9.32038 3.1639 9.42865 3.3263C9.50083 3.45262 9.6091 3.57895 9.75346 3.70527C10.2407 4.13835 10.5294 4.01204 10.9444 4.12031C11.3234 4.22859 11.4136 4.48122 11.4136 4.48122C11.4136 4.48122 11.2873 4.3188 11.0166 4.24662C10.9083 4.22858 10.782 4.19248 10.6738 4.19248C10.3489 4.17443 10.0061 4.22856 9.59105 3.86766C9.44669 3.74134 9.35647 3.65114 9.26624 3.48874C9.2482 3.45265 9.19407 3.43459 9.15798 3.43459H9.12188C8.97752 3.47068 8.8873 3.52479 8.97752 3.72329C9.06775 3.93983 9.33842 4.17444 9.68128 4.33685C10.0241 4.49925 10.4392 4.4812 10.7459 4.55338C11.0527 4.62556 11.1971 4.82406 11.1971 4.82406C11.1971 4.82406 11.0888 4.96843 11.0166 5.20302C10.9083 5.49174 10.9264 5.74437 10.9264 5.74437C10.9264 5.74437 7.98504 4.76993 5.78354 4.06617C5.51286 3.97594 5.24218 3.92179 4.98955 3.86766V13.4496C4.98955 13.4316 5.0076 13.4316 5.0076 13.4135C5.81963 12.4752 6.6497 11.7534 6.95647 10.1834C7.24519 8.6857 6.55948 7.71128 6.18053 7.31429C6.16249 7.29625 6.18053 7.24212 6.21662 7.27821C6.4873 7.47671 6.88428 7.83757 7.15496 8.41502C7.44368 9.0466 7.38956 9.7143 7.38956 9.7143C7.98504 9.67821 8.79707 9.4797 9.21211 9.33534C9.4106 9.26315 9.57301 9.46166 9.51888 9.66016C9.41061 10.003 9.12188 10.4722 8.61662 10.8511C8.49031 10.9413 8.43617 11.0316 8.40008 11.1759L8.30985 11.591C8.27376 11.7895 8.47226 11.9338 8.63466 11.8436C8.97752 11.6631 9.51888 11.3203 9.97001 10.6346C10.349 10.021 10.5114 9.44359 10.5835 9.0466C10.6377 8.75787 10.764 8.48723 10.9625 8.27069C11.2151 7.98197 11.6121 7.56691 12.1715 7.02555C12.4602 6.75487 13.7956 7.13381 14.0662 6.88118C14.2647 6.70073 14.4632 6.17744 14.4632 6.17744C14.4632 6.05112 13.7775 4.95039 13.2001 4.48122Z" fill="white"/>
</svg>
