<svg width="50" height="50" viewBox="0 0 50 50" fill="none" xmlns="http://www.w3.org/2000/svg">
<path d="M40 17.5H31.6667C31.2058 17.5 30.8333 17.1275 30.8333 16.6667V13.3333C30.8333 12.8725 31.2058 12.5 31.6667 12.5H40C40.4608 12.5 40.8333 12.8725 40.8333 13.3333V16.6667C40.8333 17.1275 40.4608 17.5 40 17.5Z" stroke="#4D4D4D" stroke-width="2" stroke-miterlimit="10"/>
<path d="M32.5 17.5V35C32.5 35.4608 32.1275 35.8333 31.6667 35.8333H25" stroke="#4D4D4D" stroke-width="2" stroke-miterlimit="10"/>
<path d="M27.8042 35.8333L24.9492 25.3941C24.7517 24.67 24.0934 24.1666 23.3417 24.1666H13.4225C12.5917 24.1666 11.8225 24.7341 11.6892 25.5533C11.5192 26.5975 12.3209 27.5 13.3334 27.5H20.8334" stroke="#4D4D4D" stroke-width="2" stroke-miterlimit="10"/>
<path d="M40.8333 47.5C44.5152 47.5 47.5 44.5152 47.5 40.8333C47.5 37.1514 44.5152 34.1666 40.8333 34.1666C37.1514 34.1666 34.1667 37.1514 34.1667 40.8333C34.1667 44.5152 37.1514 47.5 40.8333 47.5Z" stroke="#4D4D4D" stroke-width="2" stroke-miterlimit="10"/>
<path d="M40.8333 43.3334C42.214 43.3334 43.3333 42.2141 43.3333 40.8334C43.3333 39.4527 42.214 38.3334 40.8333 38.3334C39.4526 38.3334 38.3333 39.4527 38.3333 40.8334C38.3333 42.2141 39.4526 43.3334 40.8333 43.3334Z" stroke="#4D4D4D" stroke-width="2" stroke-miterlimit="10"/>
<path d="M22.5 40.8334C22.5 44.515 19.515 47.5 15.8333 47.5C12.1517 47.5 9.16667 44.515 9.16667 40.8334" stroke="#4D4D4D" stroke-width="2" stroke-miterlimit="10"/>
<path d="M30.8333 16.6667H27.5C27.0392 16.6667 26.6667 16.2942 26.6667 15.8334V14.1667C26.6667 13.7059 27.0392 13.3334 27.5 13.3334H30.8333" stroke="#4D4D4D" stroke-width="2" stroke-miterlimit="10"/>
<path d="M37.2009 17.5C37.8517 23.125 46.6667 25.8333 46.6667 31.6667V37.6033" stroke="#4D4D4D" stroke-width="2" stroke-miterlimit="10"/>
<path d="M34.1667 40.8331H7.50001C7.03917 40.8331 6.66667 40.4606 6.66667 39.9998V34.1665C6.66667 30.739 8.95834 27.8481 12.1 26.954" stroke="#4D4D4D" stroke-width="2" stroke-miterlimit="10"/>
<path d="M6.66667 40C6.66667 35.3983 10.3975 31.6666 15 31.6666" stroke="#4D4D4D" stroke-width="2" stroke-miterlimit="10"/>
<path d="M36.05 32.05C37.4709 31.2742 39.1 30.8334 40.8334 30.8334C43.0084 30.8334 45.0242 31.5317 46.6675 32.7159" stroke="#4D4D4D" stroke-width="2" stroke-miterlimit="10"/>
<path d="M46.6667 8.33337H45V10H46.6667V8.33337Z" fill="#4D4D4D"/>
<path d="M45 12.5H43.3333V14.1667H45V12.5Z" fill="#4D4D4D"/>
<path d="M40.8333 2.5H39.1667V4.16667H40.8333V2.5Z" fill="#4D4D4D"/>
<path d="M35 8.33337H33.3333V10H35V8.33337Z" fill="#4D4D4D"/>
<path d="M36.6667 4.16663H35V5.83329H36.6667V4.16663Z" fill="#4D4D4D"/>
<path d="M45 4.16663H43.3333V5.83329H45V4.16663Z" fill="#4D4D4D"/>
<path d="M8.33334 18.3334H6.66667V20H8.33334V18.3334Z" fill="#4D4D4D"/>
<path d="M12.5 20H10.8333V21.6667H12.5V20Z" fill="#4D4D4D"/>
<path d="M23.2875 40.8334C23.3175 40.5601 23.3334 40.2817 23.3334 40.0001C23.3334 37.8617 22.5275 35.9109 21.2025 34.4351" stroke="#4D4D4D" stroke-width="2" stroke-miterlimit="10"/>
<path d="M19.7895 24.2457H4.87719C4.39211 24.2457 4 23.7695 4 23.1805V10.3985C4 9.8095 4.39211 9.33337 4.87719 9.33337H18.9123C19.3974 9.33337 19.7895 9.8095 19.7895 10.3985V24.2457Z" fill="#0098FF" stroke="#4D4D4D" stroke-width="2" stroke-miterlimit="10"/>
<path d="M14.0001 13.2015C13.559 12.8406 12.5966 12.8005 12.5966 12.8005C12.5966 12.8005 12.2357 11.5774 11.0126 11.1764C10.5314 11.016 10.1505 10.9358 9.82966 10.9759C9.58906 10.996 9.58906 11.1764 9.60911 11.3569C9.62916 11.5574 9.68931 11.7378 9.80961 11.9183C9.88981 12.0586 10.0101 12.199 10.1705 12.3393C10.7119 12.8205 11.0327 12.6802 11.4938 12.8005C11.9149 12.9208 12.0151 13.2015 12.0151 13.2015C12.0151 13.2015 11.8748 13.021 11.574 12.9408C11.4537 12.9208 11.3134 12.8807 11.1931 12.8807C10.8322 12.8606 10.4512 12.9208 9.99006 12.5198C9.82965 12.3794 9.72941 12.2792 9.62916 12.0987C9.60911 12.0586 9.54896 12.0386 9.50886 12.0386H9.46876C9.30836 12.0787 9.20811 12.1388 9.30836 12.3594C9.40861 12.6 9.70935 12.8606 10.0903 13.0411C10.4713 13.2215 10.9324 13.2015 11.2733 13.2817C11.6141 13.3619 11.7745 13.5824 11.7745 13.5824C11.7745 13.5824 11.6542 13.7429 11.574 14.0035C11.4537 14.3243 11.4738 14.605 11.4738 14.605C11.4738 14.605 8.2056 13.5223 5.75948 12.7403C5.45873 12.6401 5.15798 12.5799 4.87727 12.5198V23.1664C4.87727 23.1464 4.89733 23.1464 4.89733 23.1263C5.79959 22.0837 6.72189 21.2817 7.06274 19.5373C7.38354 17.8732 6.62164 16.7905 6.20059 16.3494C6.18054 16.3293 6.20059 16.2692 6.24069 16.3093C6.54144 16.5298 6.98254 16.9308 7.28329 17.5724C7.60409 18.2741 7.54395 19.016 7.54395 19.016C8.2056 18.9759 9.10785 18.7554 9.56901 18.595C9.78956 18.5148 9.97001 18.7353 9.90986 18.9559C9.78956 19.3368 9.46876 19.8581 8.90736 20.2792C8.76701 20.3794 8.70685 20.4797 8.66675 20.6401L8.5665 21.1012C8.5264 21.3218 8.74695 21.4822 8.9274 21.3819C9.30835 21.1814 9.90986 20.8005 10.4111 20.0386C10.8322 19.3569 11.0126 18.7152 11.0928 18.2741C11.153 17.9533 11.2933 17.6526 11.5139 17.412C11.7946 17.0912 12.2357 16.63 12.8572 16.0285C13.178 15.7278 14.6617 16.1488 14.9625 15.8681C15.183 15.6676 15.4036 15.0862 15.4036 15.0862C15.4036 14.9458 14.6417 13.7228 14.0001 13.2015Z" fill="white"/>
</svg>
