<svg width="61" height="60" viewBox="0 0 61 60" fill="none" xmlns="http://www.w3.org/2000/svg">
<path d="M19.1797 55.8324L35.6058 50.6216" stroke="#101820" stroke-width="2" stroke-miterlimit="10" stroke-linecap="round"/>
<path d="M15.3877 43.6543L20.8769 41.9126" stroke="#101820" stroke-width="2" stroke-miterlimit="10" stroke-linecap="round"/>
<path d="M34.358 51.0176L49.0125 46.368C50.9468 45.7537 52.346 43.9685 52.346 41.8624C52.346 27.9007 36.9486 4 36.9486 4L7.11621 13.4656C7.11621 13.4656 22.5136 37.3663 22.5136 51.328C22.5136 53.9415 20.3589 56.0608 17.7019 56.0608C15.2759 56.0608 13.2694 54.3002 12.9393 52.0029L11.8875 44.7636L16.4509 43.3154" stroke="#101820" stroke-width="2" stroke-miterlimit="10" stroke-linecap="round" stroke-linejoin="round"/>
<path d="M12.1209 31.1293C10.8352 28.2754 9.43694 25.4812 8.07812 22.9312" stroke="#101820" stroke-width="2" stroke-miterlimit="10" stroke-linecap="round"/>
<path d="M14.5175 35.8945C14.302 35.3597 14.0797 34.8248 13.8525 34.29" stroke="#101820" stroke-width="2" stroke-miterlimit="10" stroke-linecap="round"/>
<path d="M47.5342 13.4658C49.2645 16.6415 51.1959 20.4306 52.9406 24.4213" stroke="#101820" stroke-width="2" stroke-miterlimit="10" stroke-linecap="round"/>
<path d="M44.6475 8.73291C44.9285 9.2185 45.2239 9.73342 45.529 10.2739" stroke="#101820" stroke-width="2" stroke-miterlimit="10" stroke-linecap="round"/>
<path d="M52.3457 49.9235L53.8826 49.4351" stroke="#101820" stroke-width="2" stroke-miterlimit="10" stroke-linecap="round"/>
<path d="M36.9482 55.1948L49.1343 51.3281" stroke="#101820" stroke-width="2" stroke-miterlimit="10" stroke-linecap="round"/>
<path d="M17.7021 18.1984L35.9865 12.519" stroke="#101820" stroke-width="2" stroke-miterlimit="10" stroke-linecap="round"/>
<path d="M20.5889 23.8776L38.8733 18.1982" stroke="#101820" stroke-width="2" stroke-miterlimit="10" stroke-linecap="round"/>
<path d="M23.4756 29.5573L41.76 23.8779" stroke="#101820" stroke-width="2" stroke-miterlimit="10" stroke-linecap="round"/>
<path d="M25.4004 35.2365L43.6848 29.5571" stroke="#101820" stroke-width="2" stroke-miterlimit="10" stroke-linecap="round"/>
<path d="M39.9902 41.8026L46.3137 39.7959" stroke="#101820" stroke-width="2" stroke-miterlimit="10" stroke-linecap="round"/>
<path d="M32.1367 44.2637L33.7371 43.7554" stroke="#101820" stroke-width="2" stroke-miterlimit="10" stroke-linecap="round"/>
</svg>
