<svg width="86" height="76" viewBox="0 0 86 76" fill="none" xmlns="http://www.w3.org/2000/svg">
<path d="M38.2279 4.60701C40.2348 1.13101 45.252 1.13099 47.2589 4.607L82.7805 66.1323C84.7874 69.6083 82.2788 73.9533 78.2651 73.9533H7.2218C3.20805 73.9533 0.699449 69.6083 2.70632 66.1323L38.2279 4.60701Z" fill="#FFF6E9"/>
<path d="M59.1947 24.9883L47.2722 4.58357C45.2534 1.12843 40.2558 1.14142 38.2549 4.60701L2.70632 66.179C0.699449 69.655 3.20805 74 7.2218 74H78.2651C82.2788 74 84.7874 69.655 82.7805 66.179L69.2341 42.716" stroke="#FFA825" stroke-width="3.5" stroke-linecap="round"/>
<circle cx="42.5529" cy="57.0734" r="1.96855" transform="rotate(-180 42.5529 57.0734)" fill="#FFA825"/>
<rect x="44.5215" y="50.6284" width="3.93711" height="20.473" rx="1.96855" transform="rotate(-180 44.5215 50.6284)" fill="#FFA825"/>
</svg>
