<svg width="23" height="23" viewBox="0 0 23 23" fill="none" xmlns="http://www.w3.org/2000/svg">
<path d="M11.5 0C5.15 0 0 5.15 0 11.5C0 17.845 5.15 23 11.5 23C17.845 23 23 17.85 23 11.5C23 5.15 17.845 0 11.5 0Z" fill="#EB5757"/>
<path d="M16.9552 15.0579L7.94257 6.04482C7.5495 5.65173 6.91224 5.65173 6.51979 6.04482L6.0448 6.5191C5.65173 6.91231 5.65173 7.5496 6.0448 7.94207L15.0574 16.9552C15.4506 17.3483 16.0879 17.3483 16.4803 16.9552L16.9546 16.4809C17.3484 16.0884 17.3484 15.451 16.9552 15.0579V15.0579Z" fill="white"/>
<path d="M15.0574 6.04473L6.0448 15.0579C5.65173 15.451 5.65173 16.0884 6.0448 16.4809L6.51905 16.9552C6.91224 17.3483 7.54949 17.3483 7.94194 16.9552L16.9551 7.94261C17.3483 7.54952 17.3483 6.91223 16.9551 6.51975L16.4809 6.04546C16.0878 5.65164 15.4505 5.65164 15.0574 6.04473V6.04473Z" fill="white"/>
</svg>
