<svg width="23" height="23" viewBox="0 0 23 23" fill="none" xmlns="http://www.w3.org/2000/svg">
<path d="M11.5005 -5.02681e-07C5.13442 -7.80951e-07 0.000489964 5.13392 0.000489686 11.5C0.000489408 17.8661 5.13442 23 11.5005 23C17.8666 23 23.0005 17.8661 23.0005 11.5C23.0005 5.13392 17.8666 -2.24411e-07 11.5005 -5.02681e-07Z" fill="white"/>
<path d="M11.5005 0C5.14811 0 0.000488281 5.14762 0.000488281 11.5C0.000488281 17.8524 5.14811 23 11.5005 23C17.8529 23 23.0005 17.8524 23.0005 11.5C23.0005 5.14762 17.8529 0 11.5005 0ZM18.0719 9.52857L10.8433 16.7571C10.5148 17.0857 10.0767 17.1952 9.63859 17.1952C9.20049 17.1952 8.7624 16.9762 8.43383 16.7571L4.71002 13.0333C4.38144 12.7048 4.27192 12.2667 4.27192 11.8286C4.27192 11.3905 4.49097 10.9524 4.71002 10.6238C5.03859 10.2952 5.47668 10.1857 5.91478 10.1857C6.35287 10.1857 6.79096 10.4048 7.11954 10.6238L9.63859 13.1429L15.7719 7.00952C16.1005 6.68095 16.5386 6.57143 16.9767 6.57143C17.4148 6.57143 17.8529 6.79048 18.1814 7.00952C18.7291 7.88571 18.7291 8.87143 18.0719 9.52857Z" fill="#6FCF97"/>
</svg>
