<svg width="16" height="16" viewBox="0 0 16 16" fill="none" xmlns="http://www.w3.org/2000/svg">
<path d="M13.9936 1.99645C13.7983 2.19171 13.4827 2.19042 13.2758 2.00747C11.865 0.759622 10.0203 0 7.99 0C3.57 0 0 3.58 0 8C0 12.42 3.57 16 7.99 16C11.4936 16 14.4502 13.7501 15.5338 10.6178C15.6406 10.3089 15.4015 10 15.0746 10H13.9941C13.7819 10 13.5947 10.1348 13.5125 10.3304C12.6063 12.4863 10.4749 14 7.99 14C4.68 14 1.99 11.31 1.99 8C1.99 4.69 4.68 2 7.99 2C9.47052 2 10.8078 2.54886 11.8459 3.44083C12.0547 3.62021 12.0527 3.9373 11.8581 4.13193L9.84355 6.14645C9.52857 6.46143 9.75165 7 10.1971 7H15.49C15.7661 7 15.99 6.77614 15.99 6.5V1.20711C15.99 0.761654 15.4514 0.538571 15.1364 0.853553L13.9936 1.99645Z" fill="#145A99"/>
</svg>
