<svg width="24" height="22" viewBox="0 0 24 22" fill="none" xmlns="http://www.w3.org/2000/svg">
<path d="M23.7776 15.1532C23.7871 15.1416 23.7954 15.1293 23.8043 15.1174C23.8146 15.1038 23.8252 15.0903 23.8347 15.0761C23.8442 15.062 23.8523 15.0472 23.861 15.0328C23.8687 15.0198 23.8769 15.0072 23.884 14.9938C23.8919 14.9791 23.8986 14.9639 23.9057 14.9488C23.9123 14.9349 23.9192 14.9212 23.9252 14.9068C23.9312 14.8922 23.9361 14.8773 23.9414 14.8624C23.947 14.8471 23.9529 14.8319 23.9576 14.8161C23.9621 14.8014 23.9653 14.7865 23.9691 14.7715C23.9732 14.7554 23.9777 14.7394 23.981 14.723C23.9844 14.706 23.9863 14.6888 23.9888 14.6715C23.9909 14.657 23.9937 14.6428 23.9951 14.6281C23.9982 14.5963 23.9999 14.5644 23.9999 14.5326L24 14.5313C24 14.5308 23.9999 14.5302 23.9999 14.5296C23.9999 14.4979 23.9983 14.4661 23.9952 14.4345C23.9937 14.4198 23.991 14.4056 23.9889 14.3911C23.9864 14.3739 23.9844 14.3567 23.981 14.3396C23.9778 14.3231 23.9732 14.307 23.9691 14.2908C23.9654 14.276 23.9621 14.2611 23.9578 14.2465C23.953 14.2307 23.947 14.2154 23.9414 14.1999C23.9361 14.1851 23.9313 14.1703 23.9253 14.1558C23.9193 14.1414 23.9123 14.1276 23.9057 14.1135C23.8986 14.0986 23.892 14.0835 23.8842 14.0689C23.877 14.0554 23.8688 14.0426 23.861 14.0296C23.8524 14.0152 23.8442 14.0007 23.8348 13.9866C23.8252 13.9723 23.8145 13.9589 23.8043 13.9451C23.7954 13.9332 23.7871 13.921 23.7777 13.9095C23.7581 13.8856 23.7374 13.8628 23.7157 13.8409C23.7146 13.8399 23.7138 13.8387 23.7127 13.8376L21.2605 11.3852C20.8774 11.0022 20.2563 11.0022 19.8732 11.3852C19.4901 11.7683 19.4901 12.3893 19.8732 12.7724L20.651 13.5503L17.6567 13.5504V8.41002C17.6569 8.40132 17.658 8.39282 17.658 8.38413C17.658 8.14831 17.5739 7.9327 17.4352 7.76352C17.4339 7.76182 17.4325 7.76006 17.431 7.75836C17.413 7.73665 17.394 7.71585 17.3741 7.69571C17.3713 7.69283 17.3684 7.68989 17.3655 7.68701C17.3569 7.67844 17.3488 7.66922 17.3398 7.66098L10.1761 0.497194L10.1751 0.496279C10.155 0.476268 10.1341 0.457499 10.1127 0.439516C10.1059 0.433826 10.0988 0.428464 10.0919 0.422971C10.0762 0.410546 10.0603 0.398513 10.0439 0.387134C10.0358 0.381379 10.0275 0.375755 10.0191 0.370262C10.0019 0.359014 9.98448 0.348486 9.9667 0.338415C9.95937 0.334295 9.95231 0.329782 9.94486 0.325793C9.92112 0.313107 9.89692 0.301466 9.87233 0.290872C9.86226 0.286491 9.85199 0.282763 9.84179 0.278709C9.82544 0.272235 9.80903 0.266153 9.79235 0.260594C9.78091 0.256801 9.76947 0.253139 9.75789 0.249739C9.73899 0.244245 9.7199 0.239406 9.70067 0.235025C9.6921 0.233128 9.68373 0.230709 9.67504 0.228943C9.64757 0.22345 9.61984 0.219395 9.59198 0.216322C9.58348 0.215341 9.57485 0.214818 9.56628 0.214033C9.5432 0.212006 9.52011 0.210894 9.49696 0.210501C9.49199 0.210371 9.48729 0.209717 9.48232 0.209717H0.980929C0.439195 0.209717 0 0.648911 0 1.19065V20.8092C0 21.351 0.439195 21.7902 0.980929 21.7902H16.6758C17.2175 21.7902 17.6567 21.351 17.6567 20.8092V15.5123L20.6509 15.5123L19.8732 16.2901C19.4901 16.6732 19.4901 17.2942 19.8732 17.6773C20.0647 17.8689 20.3158 17.9647 20.5667 17.9647C20.8177 17.9647 21.0689 17.8689 21.2603 17.6773L23.7126 15.2251C23.7131 15.2245 23.7135 15.224 23.714 15.2236C23.7364 15.2011 23.7576 15.1776 23.7776 15.1532ZM10.4632 3.5588L14.3076 7.4032H10.4632V3.5588ZM15.6949 19.8283H1.96186V2.17157H8.50139V8.38413C8.50139 8.92586 8.94058 9.36505 9.48232 9.36505H15.6949V13.5504L11.4441 13.5504C10.9024 13.5504 10.4632 13.9895 10.4632 14.5313C10.4632 15.073 10.9024 15.5122 11.4441 15.5122L15.6949 15.5123V19.8283Z" fill="#2D2D2D"/>
</svg>
