<svg width="34" height="56" viewBox="0 0 34 56" fill="none" xmlns="http://www.w3.org/2000/svg">
<path d="M17 11C25.8366 11 33 8.76142 33 6C33 3.23858 25.8366 1 17 1C8.16344 1 1 3.23858 1 6C1 8.76142 8.16344 11 17 11Z" stroke="#101820" stroke-width="2" stroke-miterlimit="10"/>
<path d="M33 6V10C33 12.761 25.837 15 17 15C8.163 15 1 12.761 1 10V6" stroke="#101820" stroke-width="2" stroke-miterlimit="10"/>
<path d="M29 42.6931C31.492 43.5751 33 44.7311 33 46.0001C33 48.7611 25.837 51.0001 17 51.0001C8.163 51.0001 1 48.7611 1 46.0001C1 44.7321 2.511 43.5741 5 42.6931" stroke="#101820" stroke-width="2" stroke-miterlimit="10"/>
<path d="M33 46V50C33 52.761 25.837 55 17 55C8.163 55 1 52.761 1 50V46" stroke="#101820" stroke-width="2" stroke-miterlimit="10"/>
<path d="M29 13.3059V15.3489C29 19.4859 26.869 23.3319 23.36 25.5249L22.272 26.2049C21.481 26.6999 21 27.5669 21 28.4999C21 29.4329 21.481 30.2999 22.272 30.7949L23.36 31.4749C26.869 33.6679 29 37.5129 29 41.6509V44.9999C29 46.1049 23.627 46.9999 17 46.9999C10.373 46.9999 5 46.1049 5 44.9999V41.6509C5 37.5139 7.131 33.6679 10.64 31.4749L11.728 30.7949C12.519 30.2999 13 29.4329 13 28.4999C13 27.5669 12.519 26.6999 11.728 26.2049L10.64 25.5249C7.131 23.3319 5 19.4869 5 15.3489V13.3059" stroke="#101820" stroke-width="2" stroke-miterlimit="10"/>
<path d="M25.634 46.3889L18.81 35.0169C18.428 34.3809 17.741 33.9919 17 33.9919C16.258 33.9919 15.571 34.3809 15.19 35.0169L8.36597 46.3889" stroke="#101820" stroke-width="2" stroke-miterlimit="10"/>
</svg>
