<svg width="60" height="60" viewBox="0 0 60 60" fill="none" xmlns="http://www.w3.org/2000/svg">
<path d="M30 13C38.8366 13 46 10.7614 46 8C46 5.23858 38.8366 3 30 3C21.1634 3 14 5.23858 14 8C14 10.7614 21.1634 13 30 13Z" stroke="#0098FF" stroke-width="2" stroke-miterlimit="10"/>
<path d="M46 8V12C46 14.761 38.837 17 30 17C21.163 17 14 14.761 14 12V8" stroke="#0098FF" stroke-width="2" stroke-miterlimit="10"/>
<path d="M42 44.6931C44.492 45.5751 46 46.7311 46 48.0001C46 50.7611 38.837 53.0001 30 53.0001C21.163 53.0001 14 50.7611 14 48.0001C14 46.7321 15.511 45.5741 18 44.6931" stroke="#0098FF" stroke-width="2" stroke-miterlimit="10"/>
<path d="M46 48V52C46 54.761 38.837 57 30 57C21.163 57 14 54.761 14 52V48" stroke="#0098FF" stroke-width="2" stroke-miterlimit="10"/>
<path d="M42 15.3059V17.3489C42 21.4859 39.869 25.3319 36.36 27.5249L35.272 28.2049C34.481 28.6999 34 29.5669 34 30.4999C34 31.4329 34.481 32.2999 35.272 32.7949L36.36 33.4749C39.869 35.6679 42 39.5129 42 43.6509V46.9999C42 48.1049 36.627 48.9999 30 48.9999C23.373 48.9999 18 48.1049 18 46.9999V43.6509C18 39.5139 20.131 35.6679 23.64 33.4749L24.728 32.7949C25.519 32.2999 26 31.4329 26 30.4999C26 29.5669 25.519 28.6999 24.728 28.2049L23.64 27.5249C20.131 25.3319 18 21.4869 18 17.3489V15.3059" stroke="#0098FF" stroke-width="2" stroke-miterlimit="10"/>
<path d="M38.634 48.3889L31.81 37.0169C31.428 36.3809 30.741 35.9919 30 35.9919C29.258 35.9919 28.571 36.3809 28.19 37.0169L21.366 48.3889" stroke="#0098FF" stroke-width="2" stroke-miterlimit="10"/>
<path d="M31 31H29V33H31V31Z" fill="#0098FF"/>
<path d="M55 16V27" stroke="#0098FF" stroke-width="2" stroke-miterlimit="10"/>
<path d="M51 34V44" stroke="#0098FF" stroke-width="2" stroke-miterlimit="10"/>
<path d="M51 46V50" stroke="#0098FF" stroke-width="2" stroke-miterlimit="10"/>
<path d="M10 14V28" stroke="#0098FF" stroke-width="2" stroke-miterlimit="10"/>
<path d="M10 30V34" stroke="#0098FF" stroke-width="2" stroke-miterlimit="10"/>
<path d="M5 43V53" stroke="#0098FF" stroke-width="2" stroke-miterlimit="10"/>
</svg>
