<svg width="27" height="27" viewBox="0 0 27 27" fill="none" xmlns="http://www.w3.org/2000/svg">
<path d="M19.2721 16.9225H18.1272L17.6502 16.5423C19.1767 14.831 20.0353 12.5493 20.0353 9.98239C20.0353 4.46831 15.5512 0 10.0177 0C4.4841 0 0 4.46831 0 9.98239C0 15.4965 4.4841 19.9648 10.0177 19.9648C12.4982 19.9648 14.788 19.0141 16.6007 17.588L16.9823 18.0634V19.2993L24.7102 27L27 24.7183L19.2721 16.9225ZM10.0177 16.9225C6.20141 16.9225 3.053 13.7852 3.053 9.98239C3.053 6.17958 6.20141 3.04225 10.0177 3.04225C13.8339 3.04225 16.9823 6.17958 16.9823 9.98239C16.9823 13.7852 13.9293 16.9225 10.0177 16.9225Z" fill="#2D2D2D"/>
</svg>
