<svg width="62" height="60" viewBox="0 0 62 60" fill="none" xmlns="http://www.w3.org/2000/svg">
<path d="M39 17.3984V22.9994C39 27.4174 35.418 30.9994 31 30.9994C26.582 30.9994 23 27.4174 23 22.9994V17.3984" stroke="#0098FF" stroke-width="2" stroke-miterlimit="10"/>
<path d="M42 14C42 7.923 37.073 2.998 30.996 3C24.827 3.002 20 8.275 20 14.395V17C20 17.681 20.659 18.164 21.307 17.952C24.056 17.052 27 16 31 16C35 16 37.944 17.052 40.693 17.951C41.341 18.163 42 17.681 42 17V14Z" stroke="#0098FF" stroke-width="2" stroke-miterlimit="10"/>
<path d="M25 12H31" stroke="#0098FF" stroke-width="2" stroke-miterlimit="10"/>
<path d="M33 12H35" stroke="#0098FF" stroke-width="2" stroke-miterlimit="10"/>
<path d="M35.562 33.6396C34.779 35.0306 33.031 35.9996 31 35.9996C28.929 35.9996 27.118 34.9506 26.359 33.5156" stroke="#0098FF" stroke-width="2" stroke-miterlimit="10"/>
<path d="M31 36V59" stroke="#0098FF" stroke-width="2" stroke-miterlimit="10"/>
<path d="M36 40H34V42H36V40Z" fill="#0098FF"/>
<path d="M36 44H34V46H36V44Z" fill="#0098FF"/>
<path d="M36 48H34V50H36V48Z" fill="#0098FF"/>
<path d="M36 52H34V54H36V52Z" fill="#0098FF"/>
<path d="M36 56H34V58H36V56Z" fill="#0098FF"/>
<path d="M53.798 35.2881L48.36 20.0021L48.002 18.9961" stroke="#0098FF" stroke-width="2" stroke-miterlimit="10"/>
<path d="M48.36 20.0024L48.002 18.9964L47.06 16.3494C46.811 15.6604 47.358 14.9444 48.089 15.0034L57.073 16.0004C57.88 16.0664 58.283 17.0084 57.774 17.6374L50.315 25.4974" stroke="#0098FF" stroke-width="2" stroke-miterlimit="10"/>
<path d="M19.0001 58.9998V47.8568C19.0001 45.4578 18.2441 43.1188 16.8401 41.1738L2.66808 21.5418C2.09508 20.7488 1.83308 19.7158 2.11308 18.6088C2.43108 17.3498 3.47908 16.3448 4.74908 16.0788C6.22008 15.7708 7.56308 16.3938 8.33208 17.4578L19.7401 33.2558C20.5311 34.3508 21.8001 34.9998 23.1511 34.9998C24.8711 34.9998 26.4191 33.9528 27.0581 32.3548L27.8571 30.3578" stroke="#0098FF" stroke-width="2" stroke-miterlimit="10"/>
<path d="M34.1431 30.3574L35.1571 32.8924C35.6381 34.0944 36.7131 34.9504 37.9901 35.1634C40.4551 35.5754 42.7491 36.7464 44.5381 38.5384L48.9081 42.9144" stroke="#0098FF" stroke-width="2" stroke-miterlimit="10"/>
<path d="M43 59V47L47.025 50.975C47.659 51.608 48.534 52 49.5 52C50.74 52 51.824 51.351 52.445 50.377L59.448 39.372C59.793 38.83 60 38.19 60 37.5C60 35.567 58.433 34 56.5 34C55.257 34 54.173 34.652 53.552 35.628L47.701 44.81" stroke="#0098FF" stroke-width="2" stroke-miterlimit="10"/>
</svg>
