<svg width="59" height="26" viewBox="0 0 59 26" fill="none" xmlns="http://www.w3.org/2000/svg">
<path d="M58.3573 12.4693C58.3573 5.58732 52.9806 -3.24249e-05 46.358 -3.24249e-05L11.9993 -3.24249e-05C5.37673 -3.24249e-05 -3.8147e-06 5.58732 -3.8147e-06 12.4693V13.287C-3.8147e-06 20.169 5.37673 25.7563 11.9993 25.7563L46.4235 25.7563C53.0461 25.7563 58.4229 20.169 58.4229 13.287V12.4693H58.3573Z" fill="#3FD78D"/>
<path d="M45.36 2.17963C39.6383 2.17963 35 6.99969 35 12.9455C35 18.8914 39.6383 23.7114 45.36 23.7114C51.0817 23.7114 55.7201 18.8914 55.7201 12.9455C55.7201 6.99969 51.0817 2.17963 45.36 2.17963Z" fill="#63E8A8"/>
</svg>
