<svg width="13" height="13" viewBox="0 0 13 13" fill="none" xmlns="http://www.w3.org/2000/svg">
<path d="M11.5541 12.8966C11.1706 12.8966 10.7871 12.8007 10.4994 12.513L0.431484 2.44507C-0.143828 1.86976 -0.143828 1.0068 0.431484 0.431484C1.0068 -0.143828 1.86974 -0.143828 2.44505 0.431484L12.513 10.4994C13.0883 11.0747 13.0883 11.9377 12.513 12.513C12.3212 12.7048 11.9377 12.8966 11.5541 12.8966Z" fill="#4D4D4D"/>
<path d="M1.4862 12.8966C1.10266 12.8966 0.719139 12.8007 0.431484 12.513C-0.143828 11.9377 -0.143828 11.0747 0.431484 10.4994L10.4994 0.431484C11.0747 -0.143828 11.9377 -0.143828 12.513 0.431484C13.0883 1.0068 13.0883 1.86976 12.513 2.44507L2.44505 12.513C2.15739 12.7048 1.86974 12.8966 1.4862 12.8966Z" fill="#4D4D4D"/>
</svg>
