<svg width="59" height="26" viewBox="0 0 59 26" fill="none" xmlns="http://www.w3.org/2000/svg">
<path d="M58.9344 12.4693C58.9344 5.58732 53.5577 -3.24249e-05 46.9351 -3.24249e-05L12.5764 -3.24249e-05C5.95388 -3.24249e-05 0.577145 5.58732 0.577145 12.4693V13.287C0.577145 20.169 5.95388 25.7563 12.5764 25.7563L47.0007 25.7563C53.6233 25.7563 59 20.169 59 13.287V12.4693H58.9344Z" fill="#BDBDBD"/>
<path d="M13.36 1.99994C7.63834 1.99994 2.99999 6.82001 2.99999 12.7658C2.99999 18.7117 7.63834 23.5317 13.36 23.5317C19.0817 23.5317 23.7201 18.7117 23.7201 12.7658C23.7201 6.82001 19.0817 1.99994 13.36 1.99994Z" fill="#E0E0E0"/>
</svg>
