<svg width="17" height="23" viewBox="0 0 17 23" fill="none" xmlns="http://www.w3.org/2000/svg">
<path d="M16.3087 5.75H11.7185C11.4652 5.75 11.2595 5.53438 11.2595 5.27082V0.479182C11.2595 0.214682 11.0539 0 10.8005 0H1.62021C0.860984 0 0.243164 0.644943 0.243164 1.4375V21.5625C0.243164 22.3551 0.860984 23 1.62021 23H15.3907C16.1499 23 16.7677 22.3551 16.7677 21.5625V6.22918C16.7677 5.96468 16.562 5.75 16.3087 5.75ZM15.8497 21.5625C15.8497 21.8261 15.644 22.0417 15.3907 22.0417H1.62021C1.36683 22.0417 1.16118 21.8261 1.16118 21.5625V1.4375C1.16118 1.17394 1.36683 0.958318 1.62021 0.958318H10.3415V5.27082C10.3415 6.06337 10.9593 6.70832 11.7185 6.70832H15.8497V21.5625Z" fill="#4D4D4D"/>
</svg>
