<svg width="1920" height="456" viewBox="0 0 1920 456" fill="none" xmlns="http://www.w3.org/2000/svg">
<g filter="url(#filter0_b)">
<path d="M1830.14 268.257C1775.53 224.047 1655.9 221.446 1655.9 221.446C1655.9 221.446 1611.69 75.8127 1458.25 26.4014C1398.44 8.19723 1351.63 -2.20514 1310.02 0.395453C1281.41 2.99605 1278.81 26.4017 1281.41 44.6059C1284.01 68.0112 1291.81 91.4161 1304.82 114.821C1317.82 133.026 1333.42 151.23 1349.03 164.233C1416.64 224.047 1458.25 205.842 1512.87 218.845C1564.88 231.848 1577.88 268.257 1577.88 268.257C1562.28 252.654 1544.07 242.251 1523.27 237.05C1507.66 234.449 1492.06 231.849 1476.46 229.248C1432.25 226.648 1382.84 234.449 1328.22 185.038C1310.02 172.035 1294.42 153.831 1284.01 135.627C1281.41 130.425 1276.21 127.825 1268.41 130.425H1263.21C1242.4 135.626 1232 143.428 1242.4 169.434C1255.41 200.641 1294.41 231.848 1338.62 250.053C1385.44 270.857 1445.25 270.858 1486.86 281.26C1510.26 286.461 1533.67 299.464 1549.27 317.668C1538.87 333.272 1528.47 348.875 1523.27 367.079C1515.47 390.485 1510.26 413.89 1512.87 439.896C1512.87 439.896 1107.17 309.867 800.302 216.245C293.186 57.609 -76.0981 432.094 -304.95 707.757C-705.442 1191.47 -999.309 1082.24 -1092.93 1051.04C-1108.53 1045.83 -1124.14 1053.64 -1129.34 1069.24V1071.84C-1131.94 1082.24 -1126.74 1095.25 -1116.33 1103.05C-825.068 1290.29 -541.604 1204.47 -117.707 887.198C139.751 692.153 282.785 699.955 282.785 699.955C282.785 1014.63 451.823 957.414 483.031 1264.28C501.235 1430.72 431.018 1560.75 373.805 1662.17C355.601 1695.98 366.003 1740.19 394.61 1768.8C498.634 1872.82 745.691 2106.88 730.087 2278.52C730.087 2291.52 737.889 2304.52 750.891 2309.72L810.705 2333.13C839.311 2343.53 867.917 2320.12 865.317 2286.32C862.716 2210.9 821.107 2067.87 709.281 1919.63C553.245 1711.59 561.048 1620.57 693.678 1469.73C805.504 1342.3 919.93 1248.68 964.141 1038.03C1005.75 837.786 909.527 707.757 857.515 653.145C854.915 650.544 854.915 647.943 857.515 647.943C860.116 645.342 862.717 645.342 862.717 647.943C969.341 720.76 1031.76 845.588 1023.95 975.618C1109.77 967.816 1195.59 952.213 1276.21 923.606C1294.42 918.405 1312.62 926.207 1317.82 944.411C1320.42 952.213 1320.42 960.015 1317.82 965.216C1294.42 1030.23 1250.21 1084.84 1192.99 1126.45C1177.39 1136.86 1166.99 1152.46 1164.39 1170.66L1153.98 1225.28C1151.38 1240.88 1161.78 1259.08 1177.39 1261.68C1185.19 1264.28 1192.99 1261.68 1198.19 1259.08C1273.61 1222.67 1336.02 1165.46 1382.84 1097.85C1424.44 1032.83 1453.05 962.615 1468.65 887.198C1476.46 848.189 1494.66 814.382 1520.67 785.775C1554.47 746.766 1611.69 689.553 1687.11 619.337C1728.71 582.929 1910.76 634.94 1949.76 601.133C1978.37 577.727 2004.38 507.511 2004.38 507.511C2001.78 478.905 1908.16 328.071 1830.14 268.257Z" fill="#0098FF"/>
</g>
<defs>
<filter id="filter0_b" x="-1134" y="-4" width="3142.38" height="2343.62" filterUnits="userSpaceOnUse" color-interpolation-filters="sRGB">
<feFlood flood-opacity="0" result="BackgroundImageFix"/>
<feGaussianBlur in="BackgroundImage" stdDeviation="2"/>
<feComposite in2="SourceAlpha" operator="in" result="effect1_backgroundBlur"/>
<feBlend mode="normal" in="SourceGraphic" in2="effect1_backgroundBlur" result="shape"/>
</filter>
</defs>
</svg>
