<svg width="208" height="63" viewBox="0 0 208 63" fill="none" xmlns="http://www.w3.org/2000/svg">
<path d="M165.027 61.0766V55.2494H165.67V58.116L165.576 58.0377C165.67 57.7087 165.842 57.4581 166.093 57.2701C166.343 57.0822 166.657 57.0038 167.017 57.0038C167.377 57.0038 167.675 57.0822 167.941 57.2545C168.207 57.4268 168.411 57.6617 168.568 57.9594C168.724 58.2727 168.787 58.633 168.787 59.0402C168.787 59.4632 168.709 59.8235 168.568 60.1368C168.411 60.4501 168.207 60.7007 167.941 60.8573C167.675 61.0297 167.361 61.108 167.017 61.108C166.657 61.108 166.359 61.014 166.093 60.8417C165.842 60.6694 165.67 60.4031 165.576 60.0741L165.67 59.9801V61.0453H165.027V61.0766ZM166.892 60.6067C167.283 60.6067 167.581 60.4657 167.8 60.1994C168.019 59.9331 168.129 59.5415 168.129 59.0559C168.129 58.5703 168.019 58.21 167.8 57.9437C167.581 57.6774 167.283 57.5521 166.892 57.5521C166.5 57.5521 166.187 57.6931 165.983 57.9594C165.779 58.2257 165.67 58.6016 165.67 59.0872C165.67 59.5728 165.779 59.9488 165.983 60.2151C166.202 60.4657 166.5 60.6067 166.892 60.6067Z" fill="#FF6C0E"/>
<path d="M170.996 61.2804L169.21 57.0979H169.884L171.325 60.6068L170.996 61.2804ZM169.539 62.8782L169.398 62.3769C169.633 62.3142 169.853 62.2516 170.009 62.1733C170.181 62.0949 170.322 62.0009 170.432 61.8756C170.542 61.7503 170.651 61.5937 170.73 61.39L170.98 60.8104L171.121 60.6068L172.578 57.0979H173.22L171.356 61.437C171.215 61.766 171.059 62.0166 170.871 62.2046C170.698 62.3926 170.495 62.5492 170.26 62.6432C170.056 62.7528 169.806 62.8312 169.539 62.8782Z" fill="#FF6C0E"/>
<path d="M193.302 56.8785H192.159V61.108H193.302V56.8785Z" fill="#FF6C0E"/>
<path d="M189.559 56.7688C189.01 56.7688 188.619 56.9881 188.337 57.3641H188.258V56.8785H187.099V62.9877H188.258V60.6223H188.337C188.619 61.0139 189.026 61.2176 189.574 61.2176C190.686 61.2176 191.454 60.3403 191.454 58.9932C191.438 57.6304 190.686 56.7688 189.559 56.7688ZM189.277 60.168C188.681 60.168 188.258 59.6668 188.258 58.9932C188.258 58.3196 188.697 57.8183 189.277 57.8183C189.872 57.8183 190.295 58.3196 190.295 58.9932C190.295 59.6668 189.872 60.168 189.277 60.168Z" fill="#FF6C0E"/>
<path d="M192.738 55.1553C192.378 55.1553 192.112 55.4059 192.112 55.7819C192.112 56.1421 192.378 56.4084 192.738 56.4084C193.114 56.4084 193.365 56.1421 193.365 55.7819C193.365 55.4216 193.099 55.1553 192.738 55.1553Z" fill="#FF6C0E"/>
<path d="M185.58 55.4843C185.376 55.3276 184.937 55.3119 184.937 55.3119C184.937 55.3119 184.781 54.7793 184.217 54.607C183.997 54.5444 183.825 54.4974 183.684 54.513C183.574 54.5287 183.574 54.607 183.574 54.6697C183.59 54.7637 183.606 54.842 183.668 54.9203C183.715 54.983 183.762 55.0456 183.825 55.1083C184.076 55.3276 184.217 55.2493 184.42 55.3119C184.608 55.3589 184.655 55.4843 184.655 55.4843C184.655 55.4843 184.593 55.4059 184.452 55.3746C184.405 55.3589 184.326 55.3589 184.279 55.3433C184.123 55.3276 183.935 55.3589 183.731 55.1866C183.653 55.124 183.606 55.077 183.574 54.9987C183.559 54.983 183.543 54.9673 183.527 54.983H183.512C183.449 54.9987 183.402 55.03 183.433 55.124C183.48 55.2336 183.621 55.3433 183.778 55.4216C183.95 55.4999 184.17 55.4999 184.311 55.5313C184.467 55.5626 184.53 55.6566 184.53 55.6566C184.53 55.6566 184.483 55.7192 184.436 55.8445C184.389 55.9855 184.389 56.1108 184.389 56.1108C184.389 56.1108 182.917 55.6409 181.804 55.2963C179.956 54.7167 178.624 56.0795 177.794 57.0821C176.337 58.8365 175.257 58.4449 174.928 58.3352C174.865 58.3196 174.802 58.3509 174.802 58.4136C174.787 58.4605 174.818 58.4919 174.849 58.5232C175.914 59.1968 176.933 58.8835 178.483 57.74C179.423 57.0351 179.94 57.0507 179.94 57.0507C179.94 58.1942 180.551 57.9906 180.661 59.1028C180.724 59.7137 180.473 60.1837 180.269 60.5596C180.207 60.6849 180.238 60.8416 180.348 60.9512C180.724 61.3272 181.632 62.1731 181.569 62.7997C181.569 62.8467 181.601 62.8937 181.648 62.9093L181.867 62.9876C181.977 63.0346 182.071 62.9406 182.071 62.8153C182.055 62.5334 181.914 62.0164 181.507 61.4838C180.943 60.7319 180.974 60.3873 181.444 59.8547C181.851 59.4004 182.274 59.0558 182.431 58.2882C182.572 57.5677 182.227 57.0821 182.039 56.8941C182.024 56.8784 182.039 56.8627 182.055 56.8784C182.196 56.9724 182.4 57.1604 182.525 57.4267C182.666 57.74 182.635 58.0689 182.635 58.0689C182.932 58.0533 183.34 57.9593 183.559 57.881C183.653 57.8496 183.747 57.9436 183.715 58.0376C183.653 58.2099 183.512 58.4292 183.261 58.6172C183.199 58.6642 183.167 58.6955 183.152 58.7738L183.105 58.9775C183.089 59.0715 183.183 59.1498 183.261 59.1028C183.434 59.0245 183.7 58.8522 183.935 58.5075C184.123 58.2099 184.217 57.9279 184.248 57.74C184.279 57.599 184.342 57.4737 184.436 57.364C184.561 57.223 184.765 57.0194 185.047 56.7531C185.188 56.6121 185.862 56.8158 186.003 56.6904C186.096 56.5964 186.206 56.3458 186.206 56.3458C186.206 56.2518 185.862 55.7192 185.58 55.4843Z" fill="#FF6C0E"/>
<path d="M204.879 56.8785H203.735V61.108H204.879V56.8785Z" fill="#FF6C0E"/>
<path d="M196.185 56.7688C194.885 56.7688 194.023 57.6304 194.023 58.9932C194.023 60.3403 194.916 61.2176 196.185 61.2176C197.281 61.2176 198.096 60.591 198.221 59.5258H197.219C197.078 59.9331 196.702 60.1837 196.2 60.1837C195.542 60.1837 195.072 59.7138 195.072 58.9932C195.072 58.2726 195.527 57.8027 196.2 57.8027C196.686 57.8027 197.078 58.0376 197.219 58.4606H198.221C198.111 57.4111 197.297 56.7688 196.185 56.7688Z" fill="#FF6C0E"/>
<path d="M207.855 56.8784H206.899V55.7192H205.756V59.6197C205.756 60.497 206.476 61.2175 207.354 61.2175C207.667 61.2175 207.855 61.1549 207.855 61.1549V60.027C207.855 60.027 207.761 60.0584 207.604 60.0584C207.213 60.0584 206.899 59.7451 206.899 59.3534V57.9123H207.855V56.8784Z" fill="#FF6C0E"/>
<path d="M204.299 55.1553C203.939 55.1553 203.672 55.4059 203.672 55.7819C203.672 56.1578 203.939 56.4084 204.299 56.4084C204.675 56.4084 204.926 56.1421 204.926 55.7819C204.926 55.4216 204.675 55.1553 204.299 55.1553Z" fill="#FF6C0E"/>
<path d="M203.155 56.8784H201.62L200.179 58.4292H200.101V55.7192H198.957V61.1079H200.101V59.4161H200.179L201.62 61.1079H203.155L201.26 58.9148L203.155 56.8784Z" fill="#FF6C0E"/>
<path d="M144.804 13.9885C142.611 12.657 140.011 11.9834 137.003 11.9834C133.87 11.9834 131.145 12.6883 128.795 14.1138C126.445 15.5236 124.597 17.513 123.25 20.0507C121.903 22.5884 121.213 25.502 121.213 28.8073C121.213 32.2378 121.918 35.1985 123.312 37.6891C124.707 40.1798 126.712 42.1066 129.312 43.4537C131.912 44.8009 135.014 45.4902 138.601 45.4902C140.888 45.4902 143.144 45.1455 145.384 44.4406C147.624 43.7357 149.519 42.7802 151.086 41.5583L148.548 35.0888C147.154 36.107 145.635 36.8902 143.99 37.4385C142.345 37.9868 140.669 38.2687 138.977 38.2687C136.064 38.2687 133.886 37.4698 132.476 35.8564C131.286 34.5092 130.597 32.4571 130.409 29.7002H151.666V28.306C151.666 24.9694 151.07 22.0871 149.895 19.6434C148.705 17.1997 147.013 15.32 144.804 13.9885ZM137.27 18.7192C139.306 18.7192 140.857 19.4085 141.938 20.787C142.737 21.8052 143.222 23.1836 143.41 24.9381H130.612C130.894 23.3716 131.411 22.0871 132.163 21.1002C133.369 19.5024 135.061 18.7192 137.27 18.7192Z" fill="#0098FF"/>
<path d="M205.677 29.4965C204.189 27.977 201.808 26.8335 198.518 26.0659L193.13 24.8598C191.783 24.5151 190.843 24.1392 190.31 23.7162C189.778 23.2933 189.511 22.7294 189.511 22.0088C189.511 21.0376 189.95 20.27 190.843 19.7218C191.736 19.1735 192.958 18.8915 194.524 18.8915C196.137 18.8915 197.782 19.1892 199.505 19.7844C201.213 20.3797 202.905 21.2412 204.549 22.3847L207.212 15.9779C205.442 14.7091 203.469 13.7222 201.322 13.0329C199.161 12.328 196.921 11.9834 194.602 11.9834C191.861 11.9834 189.449 12.422 187.365 13.3149C185.297 14.2078 183.684 15.414 182.509 16.9648C181.35 18.5156 180.77 20.27 180.77 22.2594C180.77 24.7188 181.507 26.6769 182.963 28.1494C184.42 29.6375 186.707 30.687 189.84 31.3136L195.104 32.5825C196.717 32.9584 197.829 33.3814 198.471 33.82C199.098 34.2586 199.427 34.8852 199.427 35.6841C199.427 36.6083 198.988 37.3445 198.096 37.8771C197.203 38.4097 195.934 38.676 194.289 38.676C192.174 38.676 190.075 38.3471 187.976 37.6891C185.877 37.0312 183.997 36.0913 182.306 34.8695L179.705 41.527C183.261 44.143 188.101 45.4588 194.226 45.4588C198.503 45.4588 201.839 44.5659 204.283 42.7958C206.711 41.0257 207.933 38.6134 207.933 35.5587C207.886 33.0524 207.15 31.016 205.677 29.4965Z" fill="#0098FF"/>
<path d="M46.571 12.9233H37.9554V44.6757H46.571V12.9233Z" fill="#0098FF"/>
<path d="M18.4217 12.1089C14.3019 12.1089 11.3412 13.7067 9.25783 16.6047H8.6469V12.9078H0V58.821H8.6469V40.9789H9.25783C11.3412 43.8769 14.4272 45.4747 18.4843 45.4747C26.7866 45.4747 32.5355 38.8955 32.5355 28.7918C32.5355 18.5784 26.8649 12.1089 18.4217 12.1089ZM16.3226 37.6423C11.8895 37.6423 8.6469 33.8358 8.6469 28.7918C8.6469 23.7477 11.8895 19.9412 16.3226 19.9412C20.8184 19.9412 23.9983 23.7477 23.9983 28.7918C23.9983 33.8358 20.8184 37.6423 16.3226 37.6423Z" fill="#0098FF"/>
<path d="M42.2477 0C39.5534 0 37.5483 1.92676 37.5483 4.68374C37.5483 7.44072 39.5378 9.41447 42.2477 9.41447C45.0361 9.41447 46.9785 7.44072 46.9785 4.68374C46.9785 1.92676 45.0361 0 42.2477 0Z" fill="#0098FF"/>
<path d="M68.204 12.1089C58.5075 12.1089 52.0223 18.5627 52.0223 28.7918C52.0223 38.8798 58.6798 45.4747 68.204 45.4747C76.4906 45.4747 82.5841 40.7283 83.5397 32.8019V32.7863H75.9736C74.8771 35.8879 72.0418 37.6736 68.3763 37.6736C63.3792 37.6736 59.9017 34.1648 59.9017 28.7918C59.9017 23.3561 63.3009 19.9099 68.3763 19.9099C72.0731 19.9099 74.9241 21.727 76.005 24.8443H83.5397V24.7973C82.6468 16.8553 76.5376 12.1089 68.204 12.1089Z" fill="#0098FF"/>
<path d="M120.477 12.9077H108.995L98.1862 24.5466H97.5753V4.1825H88.9597V44.66H97.5753V31.9247H98.1862L108.979 44.66H120.493L106.285 28.1808L120.477 12.9077Z" fill="#0098FF"/>
<path d="M173.408 12.9234C171.058 12.9234 168.975 13.6283 167.127 15.0538C166.093 15.8527 165.278 16.8552 164.667 18.0771V12.8607H156.302V22.4475V29.7316V44.4094H164.667V29.7316V28.3374C164.667 26.8023 164.965 25.4708 165.544 24.3586C166.124 23.2464 166.954 22.3848 168.035 21.7739C169.1 21.163 170.479 20.8654 172.124 20.8654C173.612 20.8654 175.116 21.21 176.619 21.8992L176.682 13.5343C176.275 13.3777 175.805 13.2367 175.257 13.1114C174.708 12.986 174.097 12.9234 173.408 12.9234Z" fill="#0098FF"/>
</svg>
