<svg width="251" height="71" viewBox="0 0 251 71" fill="none" xmlns="http://www.w3.org/2000/svg">
<path d="M174.685 16.875C172.039 15.2688 168.902 14.4562 165.274 14.4562C161.494 14.4562 158.206 15.3065 155.372 17.0262C152.537 18.7269 150.307 21.1268 148.682 24.1882C147.057 27.2495 146.226 30.7644 146.226 34.7516C146.226 38.8901 147.076 42.4617 148.758 45.4663C150.44 48.4709 152.858 50.7953 155.995 52.4204C159.132 54.0456 162.874 54.877 167.201 54.877C169.96 54.877 172.681 54.4613 175.384 53.6109C178.086 52.7606 180.373 51.6078 182.262 50.1339L179.201 42.3294C177.519 43.5577 175.686 44.5025 173.702 45.1639C171.718 45.8253 169.696 46.1655 167.655 46.1655C164.14 46.1655 161.513 45.2017 159.813 43.2553C158.376 41.6302 157.545 39.1547 157.318 35.8288H182.962V34.1469C182.962 30.1219 182.243 26.6448 180.826 23.6968C179.39 20.7489 177.349 18.4813 174.685 16.875ZM165.595 22.5819C168.052 22.5819 169.923 23.4134 171.226 25.0763C172.19 26.3046 172.776 27.9676 173.003 30.0841H157.564C157.904 28.1944 158.528 26.6448 159.435 25.4543C160.89 23.5268 162.931 22.5819 165.595 22.5819Z" fill="#0098FF"/>
<path d="M248.119 35.5831C246.324 33.7501 243.451 32.3706 239.483 31.4447L232.982 29.9896C231.357 29.5738 230.223 29.1203 229.581 28.6101C228.938 28.0999 228.617 27.4196 228.617 26.5503C228.617 25.3787 229.146 24.4527 230.223 23.7913C231.3 23.1299 232.774 22.7898 234.664 22.7898C236.61 22.7898 238.595 23.1488 240.673 23.8669C242.733 24.585 244.774 25.6244 246.758 27.0038L249.971 19.2749C247.835 17.7443 245.454 16.5538 242.865 15.7223C240.258 14.8719 237.555 14.4562 234.758 14.4562C231.452 14.4562 228.541 14.9853 226.028 16.0624C223.534 17.1396 221.587 18.5946 220.17 20.4654C218.772 22.3363 218.072 24.4527 218.072 26.8527C218.072 29.8195 218.961 32.1816 220.718 33.958C222.475 35.7532 225.234 37.0193 229.014 37.7752L235.363 39.3058C237.31 39.7594 238.651 40.2696 239.426 40.7987C240.182 41.3278 240.579 42.0837 240.579 43.0475C240.579 44.1624 240.05 45.0506 238.973 45.6931C237.895 46.3356 236.365 46.6568 234.381 46.6568C231.829 46.6568 229.297 46.26 226.765 45.4663C224.233 44.6726 221.965 43.5388 219.924 42.0648L216.787 50.0961C221.077 53.2519 226.916 54.8392 234.305 54.8392C239.464 54.8392 243.489 53.7621 246.437 51.6267C249.366 49.4914 250.84 46.5812 250.84 42.8963C250.783 39.8727 249.895 37.4161 248.119 35.5831Z" fill="#0098FF"/>
<path d="M56.181 15.5901H45.7876V53.8944H56.181V15.5901Z" fill="#0098FF"/>
<path d="M22.223 14.6075C17.253 14.6075 13.6815 16.535 11.1682 20.031H10.4312V15.5713H0V70.9586H10.4312V49.4349H11.1682C13.6815 52.9308 17.4042 54.8583 22.2986 54.8583C32.314 54.8583 39.2492 46.9216 39.2492 34.7329C39.2492 22.412 32.4085 14.6075 22.223 14.6075ZM19.6908 45.4098C14.3429 45.4098 10.4312 40.8178 10.4312 34.7329C10.4312 28.6481 14.3429 24.0561 19.6908 24.0561C25.1142 24.0561 28.9503 28.6481 28.9503 34.7329C28.9503 40.8178 25.1142 45.4098 19.6908 45.4098Z" fill="#0098FF"/>
<path d="M50.9655 0C47.7152 0 45.2964 2.32434 45.2964 5.65023C45.2964 8.97611 47.6963 11.3571 50.9655 11.3571C54.3292 11.3571 56.6724 8.97611 56.6724 5.65023C56.6724 2.32434 54.3292 0 50.9655 0Z" fill="#0098FF"/>
<path d="M82.2778 14.6075C70.5805 14.6075 62.7571 22.3931 62.7571 34.7329C62.7571 46.9027 70.7883 54.8583 82.2778 54.8583C92.2743 54.8583 99.6253 49.1325 100.778 39.5706V39.5517H91.6507C90.3279 43.2933 86.9075 45.4476 82.4856 45.4476C76.4575 45.4476 72.2623 41.2146 72.2623 34.7329C72.2623 28.1756 76.363 24.0183 82.4856 24.0183C86.9453 24.0183 90.3846 26.2104 91.6885 29.9709H100.778V29.9142C99.7009 20.3334 92.331 14.6075 82.2778 14.6075Z" fill="#0098FF"/>
<path d="M145.337 15.5712H131.486L118.447 29.6118H117.71V5.04556H107.316V53.8756H117.71V38.5123H118.447L131.467 53.8756H145.356L128.217 33.9959L145.337 15.5712Z" fill="#0098FF"/>
<path d="M209.191 15.5901C206.356 15.5901 203.843 16.4405 201.613 18.1601C200.366 19.1239 199.383 20.3333 198.646 21.8073V15.5145H188.555V27.0795V35.8667V53.5732H198.646V35.8667V34.1848C198.646 32.3329 199.005 30.7267 199.704 29.385C200.404 28.0433 201.405 27.004 202.709 26.267C203.994 25.53 205.657 25.1709 207.641 25.1709C209.436 25.1709 211.251 25.5867 213.065 26.4181L213.14 16.3271C212.649 16.1381 212.082 15.9681 211.421 15.8169C210.759 15.6657 210.022 15.5901 209.191 15.5901Z" fill="#0098FF"/>
</svg>

