<svg width="20" height="20" viewBox="0 0 20 20" fill="none" xmlns="http://www.w3.org/2000/svg">
<path d="M17.8417 20H2.15827C1.00719 20 0 19.0647 0 17.8417V2.15827C0 1.00719 0.93525 0 2.15827 0H17.8417C18.9928 0 20 0.935252 20 2.15827V17.8417C20 19.0647 19.0647 20 17.8417 20ZM8.77702 15.6115L16.9784 7.41007C17.2661 7.1223 17.2661 6.69065 16.9784 6.40288L15.9712 5.39568C15.6835 5.10791 15.2518 5.10791 14.964 5.39568L8.27337 12.0863L5.1799 8.9928C4.89213 8.70504 4.46046 8.70504 4.17269 8.9928L3.16548 10C2.87771 10.2878 2.87771 10.7194 3.16548 11.0072L7.76981 15.6115C8.05757 15.8993 8.48925 15.8993 8.77702 15.6115Z" fill="#0098FF"/>
</svg>
