<svg width="50" height="47" viewBox="0 0 50 47" fill="none" xmlns="http://www.w3.org/2000/svg">
<path d="M40.6642 12.0707C40.1296 8.89369 38.5564 5.99424 36.1505 3.79395C33.4773 1.34691 30.0021 0 26.3829 0C23.5863 0 20.8616 0.801974 18.5277 2.31339C16.5844 3.56776 14.9702 5.26424 13.8289 7.25889C13.3354 7.16636 12.8213 7.11495 12.3072 7.11495C7.93749 7.11495 4.38001 10.6724 4.38001 15.0422C4.38001 15.6076 4.4417 16.1526 4.54452 16.6872C1.71705 18.7436 0 22.0543 0 25.5809C0 28.429 1.05902 31.1947 2.99198 33.3847C4.97635 35.6262 7.59819 36.9525 10.3948 37.1067C10.4257 37.1067 10.4462 37.1067 10.4771 37.1067H19.3193C20.0905 37.1067 20.7074 36.4898 20.7074 35.7187C20.7074 34.9476 20.0905 34.3307 19.3193 34.3307H10.5182C6.31298 34.0736 2.77606 30.074 2.77606 25.5706C2.77606 22.6609 4.33889 19.9465 6.85791 18.4762C7.44396 18.137 7.69073 17.4275 7.46453 16.79C7.25889 16.2348 7.15608 15.6488 7.15608 15.0216C7.15608 12.1838 9.46946 9.87045 12.3072 9.87045C12.9138 9.87045 13.5102 9.97327 14.0654 10.1789C14.744 10.4257 15.4946 10.1172 15.803 9.46946C17.7257 5.38762 21.8795 2.7555 26.3932 2.7555C32.4594 2.7555 37.4666 7.30002 38.0424 13.3251C38.1041 13.9523 38.577 14.4561 39.1939 14.5589C43.7693 15.3403 47.2239 19.5661 47.2239 24.3882C47.2239 29.4982 43.2038 33.94 38.248 34.3204H30.6704C29.8992 34.3204 29.2823 34.9373 29.2823 35.7084C29.2823 36.4795 29.8992 37.0964 30.6704 37.0964H38.2994C38.3302 37.0964 38.3611 37.0964 38.4022 37.0964C41.5381 36.8702 44.4684 35.4308 46.6482 33.0249C48.8176 30.6395 50 27.5756 50 24.3882C49.9897 18.6202 46.0518 13.4896 40.6642 12.0707Z" fill="#808080"/>
<path d="M33.3334 26.8969C33.8783 26.352 33.8783 25.478 33.3334 24.9331L25.982 17.5817C25.7249 17.3246 25.3651 17.1704 25.0052 17.1704C24.6453 17.1704 24.2855 17.3144 24.0284 17.5817L16.677 24.9331C16.1321 25.478 16.1321 26.352 16.677 26.8969C16.9443 27.1642 17.3042 27.3082 17.6538 27.3082C18.0034 27.3082 18.3632 27.1745 18.6305 26.8969L23.6172 21.9103V44.8282C23.6172 45.5994 24.2341 46.2163 25.0052 46.2163C25.7763 46.2163 26.3932 45.5994 26.3932 44.8282V21.9103L31.3799 26.8969C31.9145 27.4418 32.7885 27.4418 33.3334 26.8969Z" fill="#808080"/>
</svg>
